<svg xmlns="http://www.w3.org/2000/svg" viewBox="0 0 32 32"><path fill="#231F20" d="M16.93.04C16.67 0 16.4 0 16.13 0h-.26c-.27 0-.54 0-.8.03C9.52.46 5 5.33 5 10.86v.47c0 3.87 2.74 7.53 4.97 10.5.72.97 1.34 1.8 1.77 2.53l.34.55c.97 1.62 1.67 2.78 2.14 3.97.3.73.5 1.76.65 2.44.07.32.12.55.17.7h1.92c.04-.14.1-.37.16-.66.15-.7.37-1.73.66-2.47.47-1.18 1.16-2.33 2.13-3.93l.36-.58c.42-.7 1.02-1.52 1.8-2.55 2.2-2.93 4.94-6.6 4.94-10.47v-.47C27 5.32 22.48.46 16.93.04zM16 15c-2.2 0-4-1.8-4-4s1.8-4 4-4 4 1.8 4 4-1.8 4-4 4z"/></svg>