<svg xmlns="http://www.w3.org/2000/svg" viewBox="0 0 222 42"><path fill="#FFF" d="M82.287 10.202v7.837h-2.172V.995h5.877c3.02 0 4.084 2.125 4.084 4.25 0 2.005-1.11 3.54-3.115 3.894v.047c1.96.307 2.668.968 2.786 4.39.023.733.26 3.4.59 4.463H88.07c-.614-1.18-.473-3.4-.662-5.666-.164-2.077-1.84-2.17-2.572-2.17h-2.55zm0-1.89h3.257c1.558 0 2.313-1.344 2.313-2.832 0-1.228-.613-2.597-2.29-2.597h-3.28v5.43zM92.602 18.04V.995h8.78v1.888h-6.608V8.36h6.137v1.89h-6.136v5.9h6.75v1.89h-8.922zM111.04 5.693c.025-.968-.046-1.936-.494-2.48s-1.464-.73-1.912-.73c-1.794 0-2.502 1.085-2.573 1.32-.07.19-.495.615-.495 3.542V11.9c0 4.18 1.37 4.675 3.046 4.675.662 0 2.668-.236 2.69-3.564h2.244c.095 5.383-3.706 5.383-4.815 5.383-2.126 0-5.384-.142-5.384-6.75V6.825c0-4.815 2.125-6.185 5.477-6.185 3.376 0 4.674 1.748 4.462 5.052h-2.244zM118.04 10.202v7.837h-2.17V.995h5.876c3.02 0 4.084 2.125 4.084 4.25 0 2.005-1.11 3.54-3.115 3.894v.047c1.96.307 2.667.968 2.785 4.39.023.733.26 3.4.59 4.463h-2.266c-.614-1.18-.473-3.4-.662-5.666-.164-2.077-1.84-2.17-2.572-2.17h-2.55zm0-1.89h3.258c1.558 0 2.313-1.344 2.313-2.832 0-1.228-.612-2.597-2.288-2.597h-3.28v5.43zM128.355 18.04V.995h8.78v1.888h-6.608V8.36h6.137v1.89h-6.137v5.9h6.75v1.89h-8.922zM144.15.996h2.76l5.55 17.043h-2.433l-1.228-4.062h-6.587l-1.274 4.06h-2.196L144.15.997zm1.32 2.006h-.046l-2.667 9.088h5.452l-2.74-9.088zM162.47.996v1.888h-4.485V18.04h-2.172V2.883h-4.485V.996h11.14zM166.696 18.04h-2.172V.995h2.172V18.04zM169.572 11.807V6.212c0-3.4 1.746-5.57 5.357-5.57s5.358 2.17 5.358 5.57v5.594c0 4.72-1.748 6.586-5.36 6.586s-5.356-1.864-5.356-6.585zm8.498.094V6.14c0-3.563-2.455-3.682-3.14-3.682s-3.14.118-3.14 3.683v5.76c0 3.73 1.086 4.675 3.14 4.675 2.054 0 3.14-.944 3.14-4.674zM194.8.996V18.04h-2.976l-6.73-14.778h-.046V18.04h-1.936V.995h3.068l6.634 14.588h.048V.996h1.937zM202.202.996h2.762l5.548 17.043h-2.432l-1.228-4.062h-6.586l-1.274 4.06h-2.195L202.202.997zm1.32 2.006h-.046l-2.667 9.088h5.45l-2.737-9.088zM212.453 18.04V.995h2.172V16.15h6.256v1.89h-8.427zM81.838 35.764v.495c0 2.312 1.464 3.045 2.856 3.045 1.724 0 3.045-.732 3.045-2.763 0-3.776-7.648-3.352-7.648-8.474 0-3.02 2.147-4.627 5.004-4.627 3.115 0 4.862 1.512 4.72 4.98h-2.265c.024-1.864-.565-3.09-2.62-3.09-1.298 0-2.62.66-2.62 2.5 0 3.754 7.648 3.21 7.648 8.616 0 3.588-2.48 4.745-5.287 4.745-5.027.05-5.027-3.8-4.98-5.428h2.148zM92.547 40.838V23.795H97.6c2.29 0 4.744.85 4.744 4.863 0 3.87-3.02 4.674-4.77 4.674H94.72v7.506h-2.173zm2.172-9.395h2.384c.896 0 3.02-.236 3.02-2.903 0-2.597-1.935-2.856-2.407-2.856H94.72v5.76zM104.62 34.606V29.01c0-3.397 1.747-5.57 5.36-5.57 3.61 0 5.357 2.173 5.357 5.57v5.596c0 4.722-1.747 6.586-5.358 6.586-3.613 0-5.36-1.864-5.36-6.586zm8.5.095v-5.76c0-3.563-2.456-3.682-3.14-3.682s-3.14.118-3.14 3.683v5.76c0 3.73 1.085 4.675 3.14 4.675s3.14-.944 3.14-4.674zM120.254 33.002v7.836h-2.172V23.795h5.878c3.02 0 4.083 2.125 4.083 4.25 0 2.006-1.11 3.54-3.115 3.895v.047c1.96.307 2.668.968 2.785 4.39.023.733.26 3.4.59 4.462h-2.266c-.613-1.18-.473-3.4-.66-5.666-.166-2.077-1.842-2.17-2.574-2.17h-2.55zm0-1.89h3.258c1.558 0 2.312-1.345 2.312-2.832 0-1.228-.613-2.597-2.29-2.597h-3.28v5.43zM140.62 23.795v1.89h-4.485v15.153h-2.172V25.684h-4.484v-1.89h11.14zM144.057 35.764v.495c0 2.312 1.464 3.045 2.856 3.045 1.724 0 3.045-.732 3.045-2.763 0-3.776-7.647-3.352-7.647-8.474 0-3.02 2.148-4.627 5.005-4.627 3.115 0 4.862 1.512 4.72 4.98h-2.265c.023-1.864-.566-3.09-2.62-3.09-1.3 0-2.62.66-2.62 2.5 0 3.754 7.647 3.21 7.647 8.616 0 3.588-2.48 4.745-5.287 4.745-5.028.05-5.028-3.8-4.98-5.428h2.147z"/><path fill="#F5C400" d="M29.002 33L18 19v10h4v12H1V29h4V13H1V1h16.5l11.502 14.666L40.45 1H57v12h-4v16h4v12H36V29h4V19"/><path fill="none" vector-effect="non-scaling-stroke" stroke="#FFF" stroke-miterlimit="10" d="M68.5 1v40"/></svg>