<svg xmlns="http://www.w3.org/2000/svg" viewBox="0 0 100 94"><path fill="#F5C400" d="M50 42.28l-14-19.6V37h5v14H15V37h5V15h-5V1h21l14 19.7L64 1h21v14h-5v22h5v14H59V37h5V22.67l-14 19.6zm0 0"/><g fill="#FFF"><path d="M4.48 75.62H2.05V64h4.5c1.64 0 2.7 1.06 2.7 3.04 0 1.48-.57 2.6-2.15 2.85v.03c.53.06 2.1.2 2.1 2.28 0 .75.06 2.94.28 3.42H7.1c-.32-.7-.26-1.5-.26-2.25 0-1.38.13-2.56-1.73-2.56H4.5v4.82zm0-6.6h1.08c.96 0 1.24-.96 1.24-1.7 0-1.1-.47-1.53-1.24-1.53H4.48V69zM10.68 75.62V64h6.34v1.8h-3.9v2.85h3.6v1.8h-3.6v3.4h4.03v1.77h-6.47zM18.24 69.8c0-3.06 0-6 4-6 2.5 0 3.5 1.38 3.4 3.87h-2.4c0-1.54-.26-2.12-1-2.12-1.36 0-1.54 1.28-1.54 4.26s.18 4.28 1.55 4.28c1.13 0 1.08-1.45 1.1-2.37h2.4c0 3.12-1.23 4.12-3.5 4.12-4 0-4-2.96-4-6zM29.32 75.62H26.9V64h4.48c1.65 0 2.72 1.06 2.72 3.04 0 1.48-.58 2.6-2.16 2.85v.03c.53.06 2.1.2 2.1 2.28 0 .75.06 2.94.28 3.42h-2.38c-.32-.7-.26-1.5-.26-2.25 0-1.38.13-2.56-1.74-2.56h-.62v4.82zm0-6.6h1.08c.96 0 1.24-.96 1.24-1.7 0-1.1-.47-1.53-1.24-1.53h-1.08V69zM35.52 75.62V64h6.34v1.8h-3.9v2.85h3.6v1.8h-3.6v3.4h4.03v1.77H35.5zM42.3 75.62L45.54 64h3.2l3.16 11.62h-2.57l-.64-2.57h-3.33l-.66 2.57h-2.4zm4.7-9.38h-.04l-1.1 5.02h2.3L47 66.24zM58.62 64v1.93h-2.7v9.7h-2.44v-9.7h-2.7V64h7.84zM59.38 75.62V64h2.43v11.62H59.4zM63.37 69.8c0-3.06 0-6 4-6 4.02 0 4.02 2.94 4.02 6s0 6.02-4.02 6.02c-4 0-4-2.96-4-6zm5.55 0c0-2.97-.17-4.25-1.54-4.25s-1.55 1.28-1.55 4.26.18 4.28 1.55 4.28 1.54-1.3 1.54-4.27zM72.96 75.62V64h3.3l3.08 8.05h.03V64h2.27v11.62h-3.2l-3.17-8.5h-.04v8.5h-2.27zM82.43 75.62L85.65 64h3.2L92 75.62h-2.55l-.65-2.57h-3.3l-.67 2.57h-2.4zm4.68-9.38h-.02l-1.1 5.02h2.3l-1.17-5.02zM92.8 75.62V64h2.43v9.7h3.64v1.92H92.8zM28.25 92.82c-3 0-3.58-1.77-3.45-3.8h2.43c0 1.12.05 2.06 1.4 2.06.8 0 1.2-.53 1.2-1.32 0-2.1-4.88-2.22-4.88-5.68 0-1.82.87-3.27 3.83-3.27 2.37 0 3.54 1.07 3.38 3.5H29.8c0-.87-.15-1.75-1.13-1.75-.8 0-1.26.43-1.26 1.23 0 2.2 4.9 2.02 4.9 5.67 0 3-2.2 3.37-4.05 3.37zM33.7 81h4.37c2.22 0 3.1 1.35 3.1 3.48 0 1.32-.4 3.4-3.25 3.4h-1.8v4.74H33.7V81zm2.42 5.1h1.35c.73 0 1.23-.78 1.23-1.56 0-.95-.26-1.75-1.36-1.75h-1.22v3.3zM42.14 86.8c0-3.06 0-6 4-6 4.02 0 4.02 2.94 4.02 6s0 6.02-4 6.02c-4.02 0-4.02-2.96-4.02-6zm5.55 0c0-2.97-.18-4.25-1.55-4.25s-1.55 1.28-1.55 4.26.18 4.28 1.55 4.28 1.55-1.3 1.55-4.27zM54.1 92.62h-2.43V81h4.5c1.65 0 2.7 1.06 2.7 3.04 0 1.48-.56 2.6-2.14 2.85v.03c.53.06 2.1.2 2.1 2.28 0 .75.05 2.94.28 3.42h-2.37c-.33-.7-.26-1.5-.26-2.25 0-1.38.13-2.56-1.74-2.56h-.63v4.82zm0-6.6h1.08c.97 0 1.24-.96 1.24-1.7 0-1.1-.47-1.53-1.24-1.53H54.1V86zM67.22 81v1.93h-2.7v9.7H62.1v-9.7h-2.72V81h7.84zM71.14 92.82c-3 0-3.58-1.77-3.45-3.8h2.42c0 1.12.05 2.06 1.4 2.06.8 0 1.2-.53 1.2-1.32 0-2.1-4.88-2.22-4.88-5.68 0-1.82.87-3.27 3.83-3.27 2.36 0 3.54 1.07 3.38 3.5h-2.37c0-.87-.14-1.75-1.12-1.75-.8 0-1.26.43-1.26 1.23 0 2.2 4.9 2.02 4.9 5.67 0 3-2.2 3.37-4.06 3.37z"/></g></svg>