<svg xmlns="http://www.w3.org/2000/svg" viewBox="0 0 106 100"><g fill="#FFF"><path d="M4.45 99.24C.82 99.24.15 97.1.3 94.68H3.2c0 1.34.06 2.46 1.67 2.46.98 0 1.47-.64 1.47-1.6 0-2.5-5.9-2.66-5.9-6.83 0-2.18 1.05-3.93 4.62-3.93 2.84 0 4.25 1.28 4.06 4.2H6.3c0-1.04-.17-2.1-1.35-2.1-.95 0-1.5.52-1.5 1.5 0 2.64 5.88 2.4 5.88 6.8 0 3.64-2.66 4.07-4.88 4.07zM19.17 85v2.33H15.9V99H13V87.34H9.72V85h9.45zM29.4 85v9.93c0 2.1-1.2 4.3-4.76 4.3-3.22 0-4.77-1.66-4.77-4.3V85h2.93v9.74c0 1.73.73 2.4 1.8 2.4 1.28 0 1.86-.85 1.86-2.4V85h2.93zM31.24 85h4.88c3.84 0 4.56 2.57 4.56 6.93C40.68 94.08 41 99 36 99h-4.76V85zm2.93 11.85h1.4c1.8 0 2.14-1.33 2.14-4.84 0-2.57 0-4.84-2.02-4.84h-1.52v9.7zM42.43 99V85h7.64v2.16h-4.7v3.45h4.33v2.16h-4.34v4.1h4.87V99h-7.8zM51.55 99V85h3.96l3.73 9.7h.04V85H62v14h-3.86l-3.82-10.23h-.03V99h-2.75zM72.2 85v2.33h-3.25V99h-2.93V87.34h-3.26V85h9.45zM76.3 99V85h2.93v11.68h4.4V99H76.3zM84.3 99V85h2.93v14H84.3zM89.03 99V85h7.27v2.16h-4.34v3.58h4.15v2.16h-4.14V99h-2.93zM97.1 99V85h7.64v2.16h-4.7v3.45h4.33v2.16h-4.34v4.1h4.87V99h-7.8z"/></g><path fill="#F5C400" d="M53 61.26L32 32.5V53h8v21H2V53h8V22H2V1h30.2L53 29.77 73.84 1H104v21h-8v31h8v21H66V53h8V32.5"/><path fill="none" d="M0 0h106v100H0z"/></svg>