<svg xmlns="http://www.w3.org/2000/svg" viewBox="0 0 236 27"><g fill="#FFF"><path d="M58.87 15.14c0-1.2-.72-1.53-1.8-1.53h-1.52v12.02h-2.28V.64h4.25c2.18 0 3.53.38 3.53 2.87v6.34c0 1.94-.72 2.6-2.5 2.7v.07c1.64.12 2.6.6 2.6 2.33v10.7h-2.28v-10.5zm-1.8-3.46c1.08 0 1.7-.32 1.7-1.8v-5.6c0-1.46-.76-1.7-1.94-1.7h-1.28v9.1h1.52zM64.27.64h6.06v1.94h-3.77v9.1h3.6v1.93h-3.6v10.1h3.77v1.92h-6.06V.64zM77.9 3.96c0-1.07-.37-1.6-1.27-1.6s-1.28.53-1.28 1.6V22.3c0 1.07.38 1.6 1.28 1.6s1.28-.53 1.28-1.6v-3.5h2.3v3.57c0 2.1-1.2 3.46-3.57 3.46-2.4 0-3.57-1.35-3.57-3.46V3.9c0-2.12 1.18-3.47 3.57-3.47 2.38 0 3.56 1.35 3.56 3.46v3.28h-2.3V3.96zM88.36 15.14c0-1.2-.72-1.53-1.8-1.53h-1.52v12.02h-2.28V.64h4.26c2.18 0 3.53.38 3.53 2.87v6.34c0 1.94-.73 2.6-2.5 2.7v.07c1.63.12 2.6.6 2.6 2.33v10.7h-2.28v-10.5zm-1.8-3.46c1.08 0 1.7-.32 1.7-1.8v-5.6c0-1.46-.76-1.7-1.94-1.7h-1.28v9.1h1.52zM93.77.64h6.05v1.94h-3.77v9.1h3.6v1.93h-3.6v10.1h3.77v1.92h-6.05V.64zM109.22 18.7h-4l-.95 6.92H102L105.65.64h3.1l3.68 24.98h-2.28l-.94-6.92zm-1.97-16.33h-.07l-1.73 14.4h3.53l-1.73-14.4zM115.7 2.58h-2.57V.64h7.4v1.94h-2.56V25.6h-2.28V2.57zM123.14.64h2.28v24.98h-2.28V.64zM128.48 4.65c0-2.46.94-4.22 4.02-4.22s4 1.76 4 4.22V21.6c0 2.46-.92 4.23-4 4.23s-4.02-1.76-4.02-4.22V4.66zm2.3 16.9c0 1.37.26 2.34 1.72 2.34s1.73-.98 1.73-2.36V4.72c0-1.38-.28-2.35-1.73-2.35s-1.73.97-1.73 2.35v16.82zM145.76.64h2v24.98h-3.24L141.64 3.4h-.06v22.22h-2V.64h3.3l2.8 21.38h.08V.64zM157.44 18.7h-4.02l-.93 6.92h-2.3L153.87.64H157l3.65 24.98h-2.28l-.93-6.92zm-1.98-16.33h-.07l-1.74 14.4h3.53l-1.74-14.4zM163.14.64h2.28V23.7h3.78v1.92h-6.06V.64zM180.92 4.06c0-.97-.24-1.7-1.3-1.7-1.08 0-1.32.73-1.32 1.7V6.7c0 .8.13 1.58.5 2.24l3.65 6.23c.52.87.83 1.94.83 3.05v3.94c0 2.36-1.4 3.67-3.67 3.67-2.52 0-3.73-1.14-3.73-3.67v-3.42h2.3v3.28c0 1.18.44 1.87 1.44 1.87.94 0 1.4-.7 1.4-1.88v-3.5c0-.86-.18-1.52-.66-2.38l-3.36-5.85c-.62-1.08-.97-1.9-.97-3.2v-3c0-2.46 1.3-3.67 3.6-3.67 2.57 0 3.6 1.2 3.6 3.5V7.1h-2.27V4.07zM186.03.64h3.63c2.94 0 3.8.97 3.8 3.8v6.13c0 2.84-.86 3.8-3.8 3.8h-1.35v11.25h-2.27V.64zm3.4 11.8c1.03 0 1.75-.28 1.75-1.56V4.13c0-1.28-.72-1.56-1.76-1.56h-1.1v9.87h1.1zM195.88 4.65c0-2.46.94-4.22 4.02-4.22s4 1.76 4 4.22V21.6c0 2.46-.92 4.23-4 4.23s-4.02-1.76-4.02-4.22V4.66zm2.3 16.9c0 1.37.27 2.34 1.72 2.34s1.73-.98 1.73-2.36V4.72c0-1.38-.28-2.35-1.73-2.35s-1.73.97-1.73 2.35v16.82zM212.63 15.14c0-1.2-.73-1.53-1.8-1.53h-1.53v12.02h-2.28V.64h4.26c2.18 0 3.53.38 3.53 2.87v6.34c0 1.94-.72 2.6-2.5 2.7v.07c1.64.12 2.6.6 2.6 2.33v10.7h-2.27v-10.5zm-1.8-3.46c1.07 0 1.7-.32 1.7-1.8v-5.6c0-1.46-.77-1.7-1.95-1.7h-1.28v9.1h1.52zM220.07 2.58h-2.56V.64h7.4v1.94h-2.55V25.6h-2.3V2.57zM232.13 4.06c0-.97-.25-1.7-1.32-1.7-1.06 0-1.3.73-1.3 1.7V6.7c0 .8.14 1.58.52 2.24l3.63 6.23c.52.87.83 1.94.83 3.05v3.94c0 2.36-1.38 3.67-3.67 3.67-2.5 0-3.73-1.14-3.73-3.67v-3.42h2.3v3.28c0 1.18.44 1.87 1.44 1.87.95 0 1.4-.7 1.4-1.88v-3.5c0-.86-.18-1.52-.66-2.38l-3.36-5.85c-.62-1.08-.97-1.9-.97-3.2v-3c0-2.46 1.3-3.67 3.6-3.67 2.57 0 3.6 1.2 3.6 3.5V7.1h-2.27V4.07z"/></g><path fill="#F5C400" d="M18.5 21l-6.88-8.75v6.25h2.5V26H1v-7.5h2.5v-10H1V1h10.3l7.2 9.16L25.66 1H36v7.5h-2.5v10H36V26H22.87v-7.5h2.5v-6.25"/><path fill="none" stroke="#FFF" stroke-miterlimit="10" d="M44.5 1v25"/></svg>