<svg xmlns="http://www.w3.org/2000/svg" viewBox="0 0 80 77"><g fill="#FFF"><path d="M3.45 75.62H1.02V64h4.5c1.65 0 2.7 1.06 2.7 3.04 0 1.48-.57 2.6-2.14 2.85v.03c.53.06 2.1.2 2.1 2.28 0 .75.05 2.94.28 3.42H6.08c-.33-.7-.26-1.5-.26-2.25 0-1.38.13-2.56-1.74-2.56h-.63v4.82zm0-6.6h1.08c.97 0 1.24-.96 1.24-1.7 0-1.1-.47-1.53-1.24-1.53H3.45V69zM9.65 75.62V64H16v1.8h-3.92v2.85h3.6v1.8h-3.6v3.4h4.04v1.77H9.65zM17.22 69.8c0-3.06 0-6 4-6 2.5 0 3.48 1.38 3.4 3.87h-2.4c0-1.54-.27-2.12-1-2.12-1.36 0-1.54 1.28-1.54 4.26s.18 4.28 1.55 4.28c1.12 0 1.07-1.45 1.1-2.37h2.4c0 3.12-1.23 4.12-3.5 4.12-4 0-4-2.96-4-6zM32.27 75.82c-3 0-3.57-1.77-3.44-3.8h2.43c0 1.12.05 2.06 1.38 2.06.82 0 1.23-.53 1.23-1.32 0-2.1-4.9-2.22-4.9-5.68 0-1.82.87-3.27 3.83-3.27 2.37 0 3.54 1.07 3.38 3.5h-2.36c0-.87-.15-1.75-1.13-1.75-.8 0-1.27.43-1.27 1.23 0 2.2 4.9 2.02 4.9 5.67 0 3-2.2 3.37-4.06 3.37zM37.7 64h4.4c2.2 0 3.08 1.35 3.08 3.48 0 1.32-.38 3.4-3.23 3.4h-1.8v4.74H37.7V64zm2.44 5.1h1.36c.72 0 1.22-.78 1.22-1.56 0-.95-.26-1.75-1.35-1.75h-1.23v3.3zM46.16 69.8c0-3.06 0-6 4-6 4.02 0 4.02 2.94 4.02 6s0 6.02-4 6.02c-4.02 0-4.02-2.96-4.02-6zm5.56 0c0-2.97-.18-4.25-1.55-4.25s-1.54 1.28-1.54 4.26.17 4.28 1.54 4.28 1.55-1.3 1.55-4.27zM58.13 75.62H55.7V64h4.5c1.64 0 2.7 1.06 2.7 3.04 0 1.48-.57 2.6-2.15 2.85v.03c.53.06 2.1.2 2.1 2.28 0 .75.06 2.94.28 3.42h-2.38c-.32-.7-.26-1.5-.26-2.25 0-1.38.12-2.56-1.75-2.56h-.62v4.82zm0-6.6h1.07c.97 0 1.24-.96 1.24-1.7 0-1.1-.46-1.53-1.24-1.53h-1.07V69zM71.25 64v1.93h-2.7v9.7H66.1v-9.7h-2.7V64h7.85zM75.16 75.82c-3 0-3.57-1.77-3.45-3.8h2.44c0 1.12.05 2.06 1.4 2.06.8 0 1.2-.53 1.2-1.32 0-2.1-4.88-2.22-4.88-5.68 0-1.82.87-3.27 3.83-3.27 2.36 0 3.53 1.07 3.37 3.5H76.7c0-.87-.14-1.75-1.12-1.75-.8 0-1.26.43-1.26 1.23 0 2.2 4.9 2.02 4.9 5.67 0 3-2.2 3.37-4.06 3.37z"/></g><path fill="#F5C400" d="M40 42.28l-14-19.6V37h5v14H5V37h5V15H5V1h21l14 19.7L54 1h21v14h-5v22h5v14H49V37h5V22.67l-14 19.6zm0 0"/></svg>