<svg xmlns="http://www.w3.org/2000/svg" viewBox="0 0 58 36"><title>Mastercard</title><path fill="#F6F6F5" d="M57.5 32.5c0 1.65-1.35 3-3 3h-51c-1.65 0-3-1.35-3-3v-29c0-1.65 1.35-3 3-3h51c1.65 0 3 1.35 3 3v29z"/><path fill="none" vector-effect="non-scaling-stroke" stroke="#CBCBCC" stroke-miterlimit="10" d="M57.5 32.5c0 1.65-1.35 3-3 3h-51c-1.65 0-3-1.35-3-3v-29c0-1.65 1.35-3 3-3h51c1.65 0 3 1.35 3 3v29z"/><path fill="#E6001B" d="M33.92 18c0 7.18-5.8 13-12.96 13S8 25.18 8 18 13.8 5 20.96 5s12.96 5.82 12.96 13z"/><path fill="#F39A1C" d="M50 18c0 7.18-5.8 13-12.96 13-7.16 0-12.96-5.82-12.96-13s5.8-13 12.96-13C44.2 5 50 10.82 50 18z"/><path fill="#FF5F01" d="M24.08 18c0 4.13 1.92 7.82 4.92 10.2 3-2.38 4.92-6.07 4.92-10.2S32 10.18 29 7.8c-3 2.38-4.92 6.07-4.92 10.2z"/></svg>