<svg xmlns="http://www.w3.org/2000/svg" viewBox="0 0 58 36"><title>Check</title><path fill="#F6F6F5" d="M57.5 32.5c0 1.65-1.35 3-3 3h-51c-1.65 0-3-1.35-3-3v-29c0-1.65 1.35-3 3-3h51c1.65 0 3 1.35 3 3v29z"/><path fill="none" vector-effect="non-scaling-stroke" stroke="#CBCBCC" stroke-miterlimit="10" d="M57.5 32.5c0 1.65-1.35 3-3 3h-51c-1.65 0-3-1.35-3-3v-29c0-1.65 1.35-3 3-3h51c1.65 0 3 1.35 3 3v29z"/><path fill="#B7CEEC" d="M3 6h52v24H3z"/><path fill="none" stroke="#124380" stroke-width="2" stroke-linejoin="round" stroke-miterlimit="10" d="M41 20c3 0 3.7 1.5 3.7 2 0 .67 1.3 4-1.7 4s0-4 2.8-3.63c-.05.1.13.53.08.63.56 0 1-.9 1.5-1-.03.08.08.4.02.5.6-.1.87-.5 1.5-.5.4 0 1.73.75 2.26.75"/><path fill="none" stroke="#55575A" stroke-width="2" stroke-miterlimit="10" d="M51 16h-8"/><circle fill="#124380" cx="50" cy="19" r="1"/><path fill="none" stroke="#55575A" stroke-width="2" stroke-miterlimit="10" d="M7 16h30M7 20h24M7 25h10M7 11h10"/></svg>