<svg xmlns="http://www.w3.org/2000/svg" viewBox="0 0 58 36"><path fill="#F6F6F5" d="M57.5 32.5c0 1.65-1.35 3-3 3h-51c-1.65 0-3-1.35-3-3v-29c0-1.65 1.35-3 3-3h51c1.65 0 3 1.35 3 3v29z"/><path vector-effect="non-scaling-stroke" fill="none" stroke="#CBCBCC" stroke-miterlimit="10" d="M57.5 32.5c0 1.65-1.35 3-3 3h-51c-1.65 0-3-1.35-3-3v-29c0-1.65 1.35-3 3-3h51c1.65 0 3 1.35 3 3v29z"/><path fill="#231F20" d="M5.96 10.5H3.65v8.1h2.3c1.24 0 2.13-.28 2.9-.92.94-.77 1.5-1.93 1.5-3.12 0-2.4-1.8-4.07-4.38-4.07zm1.86 6.1c-.5.44-1.15.64-2.17.64h-.43v-5.37h.43c1.02 0 1.64.18 2.17.65.55.5.87 1.25.87 2.03 0 .78-.33 1.55-.88 2.04zM11.06 10.5h1.58v8.1h-1.58zM16.52 13.6c-.96-.35-1.23-.58-1.23-1.02 0-.5.48-.9 1.17-.9.47 0 .86.2 1.27.66l.83-1.08c-.68-.6-1.5-.9-2.38-.9-1.45 0-2.55 1-2.55 2.32 0 1.12.5 1.7 2 2.23.62.23.94.38 1.1.47.3.2.47.5.47.85 0 .65-.52 1.14-1.23 1.14-.76 0-1.37-.38-1.74-1.08l-1.02.98c.73 1.07 1.6 1.55 2.8 1.55 1.66 0 2.8-1.08 2.8-2.66 0-1.3-.52-1.87-2.32-2.53zM19.35 14.56c0 2.4 1.88 4.24 4.3 4.24.67 0 1.26-.14 1.98-.48v-1.86c-.64.63-1.2.9-1.92.9-1.58 0-2.7-1.17-2.7-2.8 0-1.57 1.15-2.8 2.64-2.8.76 0 1.33.27 2 .9v-1.85c-.7-.35-1.28-.5-1.96-.5-2.4 0-4.33 1.9-4.33 4.26zM38.2 15.95L36 10.5H34.3l3.44 8.32h.85l3.5-8.33h-1.7M42.82 18.6h4.5v-1.36H44.4v-2.2h2.8v-1.37h-2.8v-1.8h2.9V10.5h-4.48M53.6 12.9c0-1.53-1.06-2.4-2.9-2.4h-2.34v8.12h1.6v-3.27h.2l2.2 3.27h1.93l-2.56-3.43c1.2-.25 1.85-1.07 1.85-2.3zm-3.2 1.33h-.45v-2.46h.48c1 0 1.53.4 1.53 1.2 0 .82-.54 1.26-1.55 1.26z"/><circle fill="#F08020" cx="30.47" cy="14.58" r="4.32"/><circle fill="none" cx="30.46" cy="14.58" r="4.32"/><g><path fill="#F08020" d="M54.5 35c1.38 0 2.5-1.12 2.5-2.5V20S41.8 30.36 14 35h40.5z"/></g></svg>