<svg xmlns="http://www.w3.org/2000/svg" viewBox="0 0 58 36"><title>American Express</title><path fill="#F6F6F5" d="M57.5 32.5c0 1.65-1.35 3-3 3h-51c-1.65 0-3-1.35-3-3v-29c0-1.65 1.35-3 3-3h51c1.65 0 3 1.35 3 3v29z"/><path fill="none" vector-effect="non-scaling-stroke" stroke="#CBCBCC" stroke-miterlimit="10" d="M57.5 32.5c0 1.65-1.35 3-3 3h-51c-1.65 0-3-1.35-3-3v-29c0-1.65 1.35-3 3-3h51c1.65 0 3 1.35 3 3v29z"/><path fill="#1973D1" d="M14 3h30v30H14z"/><g fill="#FFF"><path d="M14 18.22h1.44l.33-.8h.72l.32.8h2.83v-.6l.26.6h1.48l.25-.6v.6h7.04v-1.3h.14c.1.02.13.03.13.2v1.1h3.64v-.3c.3.15.75.3 1.36.3h1.53l.33-.8h.72l.32.8h2.95v-.75l.44.75h2.36v-4.9h-2.34v.57l-.33-.6h-2.4v.6l-.3-.6h-3.25c-.54 0-1.02.1-1.4.3v-.3h-2.25v.3c-.24-.22-.58-.3-.95-.3H21.2l-.55 1.28-.57-1.27H17.5v.6l-.28-.6h-2.2L14 15.65v2.58zm27.85-.7h-1.2l-1.6-2.63v2.62h-1.7l-.34-.78h-1.74l-.32.78h-.98c-.4 0-.94-.1-1.23-.38-.3-.3-.44-.7-.44-1.35 0-.53.08-1 .44-1.38.27-.28.7-.4 1.28-.4h.8v.74h-.78c-.3 0-.48.05-.66.2-.14.16-.24.44-.24.8 0 .38.08.65.24.83.12.13.36.17.58.17h.38l1.2-2.76h1.26l1.42 3.33V14h1.3l1.47 2.46V14h.85v3.52zm-9.98 0H31v-3.5h.87v3.5zm-1.35-2.56c0 .56-.37.85-.6.93.2.06.35.18.42.3.12.16.14.32.14.63v.7h-.85v-.45c0-.2.02-.5-.14-.68-.13-.13-.3-.15-.62-.15h-.9v1.27h-.85v-3.5h1.94c.43 0 .75 0 1.02.16.26.15.42.38.42.78zm-3.97 2.56h-2.82v-3.5h2.82v.72h-1.97v.63h1.92v.73h-1.92v.7h1.97v.72zm-3.45 0h-.86v-2.75L21 17.52h-.73l-1.22-2.75v2.75h-1.72l-.32-.78h-1.75l-.32.78H14l1.52-3.5h1.25l1.43 3.32V14h1.38l1.1 2.4L21.7 14h1.4v3.52zm13.62-1.5l-.58-1.4-.58 1.4h1.16zm-7.3-.57c-.12.07-.26.07-.42.07h-1.02v-.78H29c.16 0 .3 0 .42.06.1.06.17.17.17.3 0 .17-.08.3-.18.35zM16.7 16l-.57-1.4-.58 1.4h1.15zM30.34 21.22c0 .97-.73 1.18-1.47 1.18h-1.05v1.18H26.2l-1.05-1.17-1.08 1.18h-3.34v-3.52h3.4l1.02 1.15 1.08-1.14h2.7c.66 0 1.4.18 1.4 1.16zm-6.7 1.62h-2.07v-.7h1.85v-.72h-1.85v-.63h2.1l.93 1-.96 1.04zm3.34.42l-1.3-1.44 1.3-1.38v2.82zm1.93-1.58h-1.08v-.9h1.1c.3 0 .52.13.52.44s-.2.46-.53.46zm5.7-1.62h2.82v.73h-1.98v.62h1.93v.72h-1.93v.7h1.98v.74H34.6v-3.52zm-1.07 1.88c.2.07.35.2.42.3.12.17.13.33.14.64v.7h-.86v-.44c0-.22.02-.53-.13-.7-.12-.12-.3-.15-.6-.15h-.9v1.28h-.86v-3.52h1.94c.43 0 .74.02 1.02.17.27.16.43.38.43.78 0 .57-.37.85-.6.94zm-.5-.44c-.12.07-.26.08-.42.08h-1v-.8h1.02c.15 0 .3 0 .4.07.12.06.18.16.18.3s-.06.3-.18.35zm7.6.22c.17.17.26.4.26.75 0 .75-.5 1.1-1.34 1.1h-1.64v-.75h1.64c.16 0 .27-.02.34-.1.06-.04.1-.12.1-.22s-.04-.18-.1-.23c-.07-.06-.16-.08-.3-.08-.8-.03-1.78 0-1.78-1.1 0-.5.33-1.04 1.2-1.04h1.7v.74h-1.55c-.15 0-.25 0-.34.07-.1.06-.12.14-.12.25 0 .14.1.23.2.26.08.03.17.04.32.05h.46c.45.02.76.1.95.3zm3.37 1.4c-.2.3-.6.46-1.15.46h-1.63v-.76h1.63c.16 0 .27-.02.34-.1.05-.04.1-.12.1-.22s-.05-.18-.1-.23c-.08-.06-.16-.08-.3-.08-.8-.03-1.8 0-1.8-1.1 0-.5.33-1.04 1.22-1.04H44v-.7h-1.56c-.48 0-.8.1-1.06.3v-.3h-2.3c-.37 0-.8.1-1 .3v-.3h-4.14v.3c-.33-.24-.88-.3-1.13-.3h-2.7v.3c-.27-.26-.85-.3-1.2-.3h-3.04l-.7.75-.65-.74h-4.53v4.9h4.46l.72-.76.67.76h2.75v-1.15h.27c.36.02.8 0 1.17-.16v1.33h2.28V23h.1c.15 0 .16 0 .16.13v1.14h6.9c.43 0 .88-.1 1.14-.32v.32h2.18c.46 0 .9-.07 1.24-.23v-.92zm0-2.32h-1.54c-.15 0-.26 0-.34.07-.1.06-.12.14-.12.25 0 .14.07.23.18.26.1.03.2.04.33.05h.46c.47.02.77.1.96.3.04.02.06.05.08.08v-1z"/></g></svg>