<svg xmlns="http://www.w3.org/2000/svg" viewBox="0 0 58 36"><title>Cash</title><path fill="#F6F6F5" d="M57.5 32.5c0 1.65-1.35 3-3 3h-51c-1.65 0-3-1.35-3-3v-29c0-1.65 1.35-3 3-3h51c1.65 0 3 1.35 3 3v29z"/><path fill="none" vector-effect="non-scaling-stroke" stroke="#CBCBCC" stroke-miterlimit="10" d="M57.5 32.5c0 1.65-1.35 3-3 3h-51c-1.65 0-3-1.35-3-3v-29c0-1.65 1.35-3 3-3h51c1.65 0 3 1.35 3 3v29z"/><path fill="#73A550" d="M5 5h42v24H5z"/><path fill="#AEA6A2" d="M44 33c-3.3 0-6-2.7-6-6s2.7-6 6-6 6 2.7 6 6-2.7 6-6 6z"/><path fill="#F6F6F5" d="M44 22c2.76 0 5 2.24 5 5s-2.24 5-5 5-5-2.24-5-5 2.24-5 5-5m0-2c-3.87 0-7 3.13-7 7s3.13 7 7 7 7-3.13 7-7-3.13-7-7-7z"/><path fill="#AC8063" d="M49 28c-3.3 0-6-2.7-6-6s2.7-6 6-6 6 2.7 6 6-2.7 6-6 6z"/><path fill="#F6F6F5" d="M49 17c2.76 0 5 2.24 5 5s-2.24 5-5 5-5-2.24-5-5 2.24-5 5-5m0-2c-3.87 0-7 3.13-7 7s3.13 7 7 7 7-3.13 7-7-3.13-7-7-7zM26 10c3.24 0 5.88 3.14 5.88 7s-2.64 7-5.88 7-5.88-3.14-5.88-7 2.64-7 5.88-7m0-2c-4.35 0-7.88 4.03-7.88 9s3.53 9 7.88 9 7.88-4.03 7.88-9S30.34 8 26 8z"/><g><path fill="#F6F6F5" d="M26.67 21.08c-.12 0-.14.04-.14.13v.56c0 .13-.06.2-.2.2h-.45c-.12 0-.17-.07-.17-.17v-.6c.02-.1 0-.12-.1-.12-1.18-.04-1.92-.42-2.54-1.16-.12-.1-.13-.2-.05-.26l.46-.46c.1-.1.2-.1.26-.02.5.6 1.03.94 1.87 1 .1 0 .13-.02.13-.1v-2.45c0-.12-.06-.18-.2-.25-1.73-.54-2.3-1.23-2.3-2.32 0-1.18.9-2.05 2.34-2.25.07 0 .16-.04.16-.12v-.5c0-.08.04-.12.1-.12h.55c.1 0 .14.04.14.16v.5c0 .06.04.08.12.1.84.13 1.45.44 1.98.92.08.05.1.13.02.22l-.44.52c-.07.06-.13.07-.24-.04-.3-.33-.77-.6-1.32-.7-.1 0-.12.03-.12.1v2.48c0 .08.02.1.13.15l.48.14c1.18.43 1.9 1.2 1.9 2.3 0 1.2-.94 2.1-2.36 2.18zm-.94-7.27c0-.06-.05-.1-.14-.1-.83.1-1.33.6-1.33 1.26 0 .52.3.88 1.24 1.24.14.05.23 0 .23-.16V13.8zm.9 6.37c.84-.04 1.34-.52 1.34-1.16 0-.6-.36-1-1.3-1.32-.1-.04-.14-.03-.14.1v2.33c0 .06.03.08.1.07z"/></g><circle fill="#F6F6F5" cx="12" cy="17" r="2"/><circle fill="#F6F6F5" cx="40" cy="17" r="2"/></svg>