<svg xmlns="http://www.w3.org/2000/svg" viewBox="0 0 58 36"><title>Visa</title><path fill="#F6F6F5" d="M57.5 32.5c0 1.65-1.35 3-3 3h-51c-1.65 0-3-1.35-3-3v-29c0-1.65 1.35-3 3-3h51c1.65 0 3 1.35 3 3v29z"/><path fill="none" vector-effect="non-scaling-stroke" stroke="#CBCBCC" stroke-miterlimit="10" d="M57.5 32.5c0 1.65-1.35 3-3 3h-51c-1.65 0-3-1.35-3-3v-29c0-1.65 1.35-3 3-3h51c1.65 0 3 1.35 3 3v29z"/><path fill="#10357F" d="M22.96 11.38L17.4 24.65h-3.63l-2.74-10.6c-.17-.64-.3-.88-.82-1.16-.8-.45-2.18-.88-3.37-1.14l.07-.38h5.85c.74 0 1.4.5 1.58 1.35l1.45 7.68 3.57-9.02h3.6zm14.22 8.94c.02-3.5-4.84-3.7-4.8-5.26 0-.48.46-.98 1.45-1.1.5-.08 1.85-.13 3.4.58l.6-2.8c-.84-.3-1.9-.6-3.23-.6-3.4 0-5.78 1.8-5.8 4.4-.02 1.9 1.7 2.96 3 3.6 1.35.65 1.8 1.06 1.8 1.65-.02.88-1.08 1.27-2.07 1.3-1.72 0-2.72-.48-3.52-.85l-.62 2.9c.8.38 2.3.7 3.82.7 3.6 0 5.97-1.77 5.98-4.53m8.97 4.33h3.17l-2.77-13.27h-2.93c-.66 0-1.22.38-1.47.97L37 24.65h3.6l.73-1.98h4.4l.42 1.98zm-3.84-4.7l1.82-4.98 1.04 4.98H42.3zm-14.43-8.57l-2.84 13.27H21.6l2.83-13.27h3.44z"/><path fill="none" d="M4 2H2v2c0-1.1.9-2 2-2zM54 2c1.1 0 2 .9 2 2V2h-2z"/><path fill="#10357F" d="M54 2H4c-1.1 0-2 .9-2 2v2h54V4c0-1.1-.9-2-2-2z"/><path fill="none" d="M2 32v2h2c-1.1 0-2-.9-2-2zM54 34h2v-2c0 1.1-.9 2-2 2z"/><path fill="#FCB316" d="M2 30v2c0 1.1.9 2 2 2h50c1.1 0 2-.9 2-2v-2H2z"/></svg>