<svg xmlns="http://www.w3.org/2000/svg" viewBox="0 0 64 64"><g fill="#010101"><circle cx="37" cy="13" r="6"/><path d="M14 38C7.37 38 2 43.37 2 50s5.37 12 12 12 12-5.37 12-12-5.37-12-12-12zm0 20c-4.4 0-8-3.6-8-8s3.6-8 8-8 8 3.6 8 8-3.6 8-8 8zM50 38c-6.63 0-12 5.37-12 12s5.37 12 12 12 12-5.37 12-12-5.37-12-12-12zm0 20c-4.4 0-8-3.6-8-8s3.6-8 8-8 8 3.6 8 8-3.6 8-8 8z"/><path d="M28.27 35.43l5.85-8.12c.05-.06.08-.14.13-.22L37.17 30c1.16 1.16 3.2 2 4.83 2h7c1.1 0 2-.9 2-2s-.9-2-2-2h-7c-.57 0-1.6-.43-2-.83l-5.6-5.58c-.13-.16-.3-.28-.48-.37-.27-.33-.57-.64-.93-.9-2.26-1.6-5.38-1.1-7 1.14l-5.84 8.1c-1.37 1.9-1.2 4.45.25 6.16.14.25.32.47.55.66l11 8.58-4.03 10.8c-.38 1.04.15 2.2 1.18 2.58.23.08.47.12.7.12.8 0 1.57-.5 1.87-1.3L36.2 45c.3-.8.04-1.73-.65-2.27l-8.15-6.38c.32-.26.62-.57.87-.92z"/></g></svg>