<svg xmlns="http://www.w3.org/2000/svg" xmlns:xlink="http://www.w3.org/1999/xlink" version="1.1" x="0px" y="0px" viewBox="0 0 512 640" enable-background="new 0 0 512 512" xml:space="preserve"><g><path fill="#000000" d="M106.674,309.314c-41.172,0-74.671,33.484-74.671,74.655s33.499,74.655,74.671,74.655   c41.171,0,74.654-33.484,74.654-74.655S147.845,309.314,106.674,309.314z M106.674,437.312c-29.406,0-53.343-23.938-53.343-53.343   s23.937-53.343,53.343-53.343s53.327,23.938,53.327,53.343S136.081,437.312,106.674,437.312z"/><path fill="#000000" d="M504.559,344.814l-56.938-208.301l0,0c-0.203-0.742-5.125-18.422-19.203-36.023   c-6.609-8.273-15.92-17.335-28.514-24.327l-6.078-25.336l-0.156-0.625c-0.359-1.18-9.297-28.827-52.344-28.827   c-21.953,0-33.875,9.335-40.016,17.163c-6.732,8.594-8.029,17.312-8.154,18.281c-0.094,0.75-0.109,1.492-0.062,2.227l0,0   l1.67,20.992c-3.467,2.5-6.67,5.297-9.592,8.397c-13.016,13.758-17.219,30.062-18.547,40.43c-3.094-0.562-6.625-0.891-10.625-0.891   c-4,0-7.531,0.328-10.625,0.891c-1.328-10.367-5.531-26.672-18.547-40.43c-2.922-3.101-6.125-5.897-9.594-8.397l1.672-20.992   l-0.062-2.227c-0.125-0.969-1.422-9.688-8.156-18.281c-6.141-7.828-18.062-17.163-40.015-17.163   c-43.046,0-51.983,27.647-52.343,28.827l-6.234,25.961C99.502,83.155,90.19,92.217,83.581,100.49   c-14.078,17.602-19,35.281-19.203,36.023l0,0L7.442,344.814c-4.797,12.125-7.438,25.344-7.438,39.155   c0,58.812,47.843,106.655,106.67,106.655c58.546,0,106.232-47.422,106.654-105.874l2.781-21.249   c9.766,10.938,23.984,17.844,39.797,17.844c15.906,0,30.187-6.984,39.966-18.031l2.797,21.437   c0.422,58.452,48.109,105.874,106.656,105.874c58.826,0,106.67-47.844,106.67-106.655   C511.996,370.158,509.355,356.939,504.559,344.814z M411.295,113.225c11.545,14.195,15.717,28.781,15.748,28.93l0,0l42.922,157.035   c-4.969-3.812-10.266-7.187-15.859-10.062l-41.717-152.622c-1.547-5.688-7.422-9.031-13.109-7.477   c-5.672,1.555-9.016,7.414-7.469,13.102l37.701,137.935c-7.781-1.812-15.875-2.75-24.186-2.75   c-39.328,0-73.75,21.374-92.234,53.155l-25.701-193.934c0.141-5.016,1.547-21.18,13.451-33.641   c10.953-11.445,28.156-17.249,51.156-17.249C376.451,85.647,396.404,94.928,411.295,113.225z M314.482,58.843   c0.359-1.32,1.344-4.234,3.625-7.141c4.672-5.969,12.484-9,23.219-9c24.859,0,31.047,11.773,31.922,13.734l2.5,10.492   c-7.203-1.664-15.109-2.617-23.75-2.617c-13.734,0-25.969,1.797-36.656,5.352L314.482,58.843z M138.752,56.437   c0.875-1.961,7.062-13.734,31.921-13.734c10.343,0,17.968,2.812,22.702,8.359c2.625,3.094,3.734,6.32,4.141,7.82l-0.859,10.781   c-10.688-3.555-22.921-5.352-36.655-5.352c-8.641,0-16.546,0.953-23.749,2.617L138.752,56.437z M84.956,142.123   c0.156-0.57,16.062-56.476,75.046-56.476c22.999,0,40.202,5.804,51.155,17.249c11.922,12.484,13.328,28.695,13.453,33.641   l-25.703,193.934c-18.484-31.781-52.904-53.155-92.232-53.155c-8.312,0-16.406,0.938-24.188,2.75l37.703-137.935   c1.547-5.688-1.797-11.547-7.469-13.102c-5.688-1.555-11.562,1.789-13.109,7.477L57.894,289.128   c-5.594,2.875-10.891,6.249-15.859,10.062l42.921-157.059v-0.016V142.123z M106.674,469.312c-47.062,0-85.342-38.281-85.342-85.343   s38.279-85.343,85.342-85.343c47.046,0,85.326,38.281,85.326,85.343S153.72,469.312,106.674,469.312z M255.907,360.002   c-17.641,0-32-14.281-32-31.859s14.359-31.859,32-31.859c17.656,0,32,14.281,32,31.859S273.562,360.002,255.907,360.002z    M255.907,274.94c-10.844,0-20.938,3.266-29.375,8.844l17.266-131.857c0.953-0.883,4.438-2.617,12.203-2.617   c7.765,0,11.234,1.734,12.203,2.617l17.281,131.967C277.016,278.253,266.844,274.94,255.907,274.94z M405.326,469.312   c-47.047,0-85.328-38.281-85.328-85.343s38.281-85.343,85.328-85.343c47.061,0,85.342,38.281,85.342,85.343   S452.387,469.312,405.326,469.312z"/><path fill="#000000" d="M405.326,309.314c-41.172,0-74.656,33.484-74.656,74.655s33.484,74.655,74.656,74.655   c41.17,0,74.67-33.484,74.67-74.655S446.496,309.314,405.326,309.314z M405.326,437.312c-29.406,0-53.328-23.938-53.328-53.343   s23.922-53.343,53.328-53.343c29.404,0,53.342,23.938,53.342,53.343S434.73,437.312,405.326,437.312z"/><path fill="#000000" d="M256,317.471c-5.891,0-10.672,4.781-10.672,10.672s4.781,10.672,10.672,10.672   c5.89,0,10.671-4.781,10.671-10.672S261.891,317.471,256,317.471z"/></g><text x="0" y="527" fill="#000000" font-size="5px" font-weight="bold" font-family="'Helvetica Neue', Helvetica, Arial-Unicode, Arial, Sans-serif">Created by lastspark</text><text x="0" y="532" fill="#000000" font-size="5px" font-weight="bold" font-family="'Helvetica Neue', Helvetica, Arial-Unicode, Arial, Sans-serif">from the Noun Project</text></svg>